<svg width="19" height="22" viewBox="0 0 19 22" fill="none" xmlns="http://www.w3.org/2000/svg">
<path d="M6.7756 12.7827L13.5632 3.30537L16.2309 5.21598L9.44332 14.6933L6.36905 16.168L6.7756 12.7827Z" fill="black"/>
<path d="M15.1302 1.00964C15.4518 0.560636 16.0765 0.457333 16.5255 0.77891L17.5672 1.52499C18.0162 1.84656 18.1195 2.47124 17.798 2.92025L16.4696 4.77497L13.8019 2.86436L15.1302 1.00964Z" fill="black"/>
<path d="M8.225 3.99999H3C1.89543 3.99999 1 4.89542 1 5.99999V19C1 20.1046 1.89543 21 3 21H16C17.1046 21 18 20.1046 18 19V10" stroke="black" stroke-width="2" stroke-linecap="round" stroke-linejoin="round"/>
</svg>
