<svg id="Camada_1" data-name="Camada 1" xmlns="http://www.w3.org/2000/svg" viewBox="0 0 15.4 22.4"><path d="M.7,4.2A3.52,3.52,0,0,1,4.2.7H7.7v7H4.2A3.52,3.52,0,0,1,.7,4.2Z" style="fill:none;stroke:#00d2df;stroke-linecap:round;stroke-linejoin:round;stroke-width:1.399999976158142px"/><path d="M7.7.7h3.5A3.45,3.45,0,0,1,12.54,1a3.31,3.31,0,0,1,1.13.76,3.31,3.31,0,0,1,.76,1.13,3.46,3.46,0,0,1,0,2.68,3.31,3.31,0,0,1-.76,1.13,3.31,3.31,0,0,1-1.13.76,3.45,3.45,0,0,1-1.34.27H7.7Z" style="fill:none;stroke:#00d2df;stroke-linecap:round;stroke-linejoin:round;stroke-width:1.399999976158142px"/><path d="M7.7,11.2A3.45,3.45,0,0,1,8,9.86,3.54,3.54,0,0,1,9.86,8a3.46,3.46,0,0,1,2.68,0,3.54,3.54,0,0,1,1.89,1.89,3.46,3.46,0,0,1,0,2.68,3.54,3.54,0,0,1-1.89,1.89,3.46,3.46,0,0,1-2.68,0A3.54,3.54,0,0,1,8,12.54,3.45,3.45,0,0,1,7.7,11.2Z" style="fill:none;stroke:#00d2df;stroke-linecap:round;stroke-linejoin:round;stroke-width:1.399999976158142px"/><path d="M.7,18.2a3.52,3.52,0,0,1,3.5-3.5H7.7v3.5a3.49,3.49,0,0,1-6,2.47A3.46,3.46,0,0,1,.7,18.2Z" style="fill:none;stroke:#00d2df;stroke-linecap:round;stroke-linejoin:round;stroke-width:1.399999976158142px"/><path d="M.7,11.2A3.52,3.52,0,0,1,4.2,7.7H7.7v7H4.2A3.52,3.52,0,0,1,.7,11.2Z" style="fill:none;stroke:#00d2df;stroke-linecap:round;stroke-linejoin:round;stroke-width:1.399999976158142px"/></svg>