<svg id="Camada_1" data-name="Camada 1" xmlns="http://www.w3.org/2000/svg" viewBox="0 0 21.59 19.58"><path d="M5.88,2.57a1.51,1.51,0,0,0-.7.13.82.82,0,0,0-.33.57,7.77,7.77,0,0,0-.09,1.41V6.74a3.45,3.45,0,0,1-.25,1.39A3.18,3.18,0,0,1,4,9.06a3.6,3.6,0,0,1-.59.55,3.26,3.26,0,0,1,.55.53,3.21,3.21,0,0,1,.59.84,2.3,2.3,0,0,1,.25,1.09V14.6A7.59,7.59,0,0,0,4.85,16a.82.82,0,0,0,.33.57,1.51,1.51,0,0,0,.7.13h.78v2.57H5l-1.18,0A2.78,2.78,0,0,1,2.76,19,1.55,1.55,0,0,1,2,18.27a3.45,3.45,0,0,1-.27-1.54V13.25a3.79,3.79,0,0,0-.19-1.18A2.32,2.32,0,0,0,1,11.15,1.32,1.32,0,0,0,0,10.79V8.34A1.46,1.46,0,0,0,1,8a2.28,2.28,0,0,0,.57-.91,4,4,0,0,0,.19-1.2V2.55A3.48,3.48,0,0,1,2,1,1.56,1.56,0,0,1,2.72.27,3,3,0,0,1,3.79,0c.4,0,.8,0,1.2,0H6.66V2.57ZM21.59,9.8a14.47,14.47,0,0,1-.53,4,14.81,14.81,0,0,1-1.3,3.33,11.75,11.75,0,0,1-1.71,2.43l-2.42-1.12a11.19,11.19,0,0,0,1.47-2.23,12.28,12.28,0,0,0,1-2.87,15.25,15.25,0,0,0,.38-3.56,15,15,0,0,0-.38-3.54,12.12,12.12,0,0,0-1-2.89,10.49,10.49,0,0,0-1.47-2.21L18.05,0a11.66,11.66,0,0,1,1.71,2.42,15.27,15.27,0,0,1,1.3,3.36A14.22,14.22,0,0,1,21.59,9.8Z" style="fill:#00d2df"/></svg>