<?xml version="1.0" standalone="no"?>
<!DOCTYPE svg PUBLIC "-//W3C//DTD SVG 20010904//EN"
 "http://www.w3.org/TR/2001/REC-SVG-20010904/DTD/svg10.dtd">
<svg version="1.0" xmlns="http://www.w3.org/2000/svg"
 width="460.000000pt" height="460.000000pt" viewBox="0 0 460.000000 460.000000"
 preserveAspectRatio="xMidYMid meet">
<metadata>
Created by potrace 1.14, written by Peter Selinger 2001-2017
</metadata>
<g transform="translate(0.000000,460.000000) scale(0.100000,-0.100000)"
fill="#000000" stroke="none">
<path d="M907 4374 c-1 -1 -40 -4 -87 -7 -96 -6 -125 -11 -193 -33 -44 -15
-138 -76 -145 -96 -2 -4 -10 -15 -18 -23 -27 -27 -66 -125 -79 -203 -10 -56
-14 -200 -15 -536 0 -252 -2 -462 -4 -465 -3 -4 -7 -26 -11 -50 -16 -105 -82
-231 -154 -293 -41 -35 -122 -68 -167 -68 -19 0 -24 -5 -25 -27 -1 -34 -1
-486 0 -493 1 -3 18 -7 39 -8 40 -3 125 -40 157 -69 59 -53 112 -148 141 -248
18 -64 20 -124 28 -770 2 -181 6 -346 10 -365 42 -214 166 -321 401 -345 40
-4 561 -9 627 -6 15 1 16 25 15 274 l-2 272 -100 1 c-176 1 -226 18 -260 85
-31 60 -37 138 -40 549 -2 228 -6 429 -9 445 -21 116 -93 239 -209 358 l-73
75 61 58 c65 62 133 155 155 214 7 19 17 40 20 45 10 14 37 110 46 165 4 25 8
214 9 420 3 400 10 471 49 531 37 56 74 66 248 68 l107 1 -1 274 0 274 -259
-1 c-143 0 -260 -2 -262 -3z"/>
<path d="M3775 4335 c-112 -54 -336 -160 -382 -180 -24 -10 -43 -24 -43 -29 0
-6 12 -24 28 -41 36 -40 96 -122 157 -215 49 -75 172 -309 193 -365 6 -16 25
-66 42 -110 42 -110 94 -289 119 -415 31 -151 30 -150 37 -208 3 -29 7 -62 9
-72 29 -151 22 -753 -11 -913 -2 -12 -7 -42 -10 -67 -13 -108 -82 -379 -130
-509 -66 -179 -207 -466 -251 -509 -7 -7 -13 -17 -13 -22 0 -4 -37 -57 -81
-116 -45 -60 -83 -114 -85 -120 -3 -5 33 -27 78 -47 46 -21 160 -73 253 -117
l170 -79 45 48 c64 69 190 233 190 248 0 3 6 14 14 22 24 28 160 272 200 361
67 150 73 163 119 297 41 117 106 347 122 428 17 91 31 172 44 265 12 80 13
756 1 825 -4 28 -11 73 -14 100 -33 257 -147 624 -294 945 -28 60 -139 256
-189 332 -86 131 -222 299 -241 297 -4 0 -38 -16 -77 -34z"/>
</g>
</svg>
