<svg id="Camada_2" data-name="Camada 2" xmlns="http://www.w3.org/2000/svg" viewBox="0 0 23.32 19.35"><path d="M11.63,6.14a.08.08,0,0,1-.08.1,14.07,14.07,0,0,1-4.41-.86A13.17,13.17,0,0,1,2.71,1.79s-.08,0-.11,0a10.39,10.39,0,0,0-.25,7.77,10.4,10.4,0,0,0,5.2,5.1s.06.07,0,.09a16.29,16.29,0,0,1-3.2,1.5,16,16,0,0,1-3.61.45c-.06,0-.07,0,0,.05a16.79,16.79,0,0,0,7.36,1.88,13.88,13.88,0,0,0,7.46-2.46,13.25,13.25,0,0,0,4.1-5.41,16.73,16.73,0,0,0,.92-6.29.35.35,0,0,1,.06-.17,11.32,11.32,0,0,0,1.29-1.73,10.72,10.72,0,0,0,.7-1.77c0-.06,0-.07-.06,0A16,16,0,0,1,21,1.68c-.53.25-1.37.53-1.37.53a.16.16,0,0,1-.16,0A5.11,5.11,0,0,0,17.22.83,4.48,4.48,0,0,0,14.53,1a4.73,4.73,0,0,0-2.15,1.73A5.28,5.28,0,0,0,11.63,6.14Z" style="fill:none;stroke:#000;stroke-miterlimit:10;stroke-width:1.4px"/></svg>